HIERARCHY
ROOT Hips
{
	OFFSET 0.00000 0.00000 0.00000
	CHANNELS 6 Xposition Yposition Zposition Zrotation Yrotation Xrotation 
	JOINT LHipJoint
	{
		OFFSET 0 0 0
		CHANNELS 3 Zrotation Yrotation Xrotation
		JOINT LeftUpLeg
		{
			OFFSET 1.37590 -1.78394 0.89329
			CHANNELS 3 Zrotation Yrotation Xrotation
			JOINT LeftLeg
			{
				OFFSET 2.47928 -6.81178 0.00000
				CHANNELS 3 Zrotation Yrotation Xrotation
				JOINT LeftFoot
				{
					OFFSET 2.63345 -7.23535 0.00000
					CHANNELS 3 Zrotation Yrotation Xrotation
					JOINT LeftToeBase
					{
						OFFSET 0.23938 -0.65768 2.27012
						CHANNELS 3 Zrotation Yrotation Xrotation
						End Site
						{
							OFFSET 0.00000 -0.00000 1.18363
						}
					}
				}
			}
		}
	}
	JOINT RHipJoint
	{
		OFFSET 0 0 0
		CHANNELS 3 Zrotation Yrotation Xrotation
		JOINT RightUpLeg
		{
			OFFSET -1.33617 -1.78394 0.89329
			CHANNELS 3 Zrotation Yrotation Xrotation
			JOINT RightLeg
			{
				OFFSET -2.56922 -7.05888 0.00000
				CHANNELS 3 Zrotation Yrotation Xrotation
				JOINT RightFoot
				{
					OFFSET -2.56568 -7.04915 0.00000
					CHANNELS 3 Zrotation Yrotation Xrotation
					JOINT RightToeBase
					{
						OFFSET -0.27533 -0.75646 2.18105
						CHANNELS 3 Zrotation Yrotation Xrotation
						End Site
						{
							OFFSET -0.00000 -0.00000 1.15233
						}
					}
				}
			}
		}
	}
	JOINT LowerBack
	{
		OFFSET 0 0 0
		CHANNELS 3 Zrotation Yrotation Xrotation
		JOINT Spine
		{
			OFFSET 0.06190 2.15152 -0.00935
			CHANNELS 3 Zrotation Yrotation Xrotation
			JOINT Spine1
			{
				OFFSET 0.06334 2.15332 0.00872
				CHANNELS 3 Zrotation Yrotation Xrotation
				JOINT Neck
				{
					OFFSET 0 0 0
					CHANNELS 3 Zrotation Yrotation Xrotation
					JOINT Neck1
					{
						OFFSET -0.04202 1.66908 0.23524
						CHANNELS 3 Zrotation Yrotation Xrotation
						JOINT Head
						{
							OFFSET 0.07510 1.69357 -0.24440
							CHANNELS 3 Zrotation Yrotation Xrotation
							End Site
							{
								OFFSET 0.02556 1.71719 -0.11000
							}
						}
					}
				}
				JOINT LeftShoulder
				{
					OFFSET 0 0 0
					CHANNELS 3 Zrotation Yrotation Xrotation
					JOINT LeftArm
					{
						OFFSET 3.67168 1.26306 -0.41342
						CHANNELS 3 Zrotation Yrotation Xrotation
						JOINT LeftForeArm
						{
							OFFSET 4.68510 -0.00000 -0.00000
							CHANNELS 3 Zrotation Yrotation Xrotation
							JOINT LeftHand
							{
								OFFSET 3.39626 -0.00000 -0.00000
								CHANNELS 3 Zrotation Yrotation Xrotation
								JOINT LeftFingerBase
								{
									OFFSET 0 0 0
									CHANNELS 3 Zrotation Yrotation Xrotation
									JOINT LeftHandIndex1
									{
										OFFSET 0.48608 -0.00000 -0.00000
										CHANNELS 3 Zrotation Yrotation Xrotation
										End Site
										{
											OFFSET 0.39189 -0.00000 -0.00000
										}
									}
								}
								JOINT LThumb
								{
									OFFSET 0 0 0
									CHANNELS 3 Zrotation Yrotation Xrotation
									End Site
									{
										OFFSET 0.39787 -0.00000 0.39787
									}
								}
							}
						}
					}
				}
				JOINT RightShoulder
				{
					OFFSET 0 0 0
					CHANNELS 3 Zrotation Yrotation Xrotation
					JOINT RightArm
					{
						OFFSET -3.04136 1.42992 -0.76390
						CHANNELS 3 Zrotation Yrotation Xrotation
						JOINT RightForeArm
						{
							OFFSET -5.55576 -0.00000 -0.00000
							CHANNELS 3 Zrotation Yrotation Xrotation
							JOINT RightHand
							{
								OFFSET -3.32774 -0.00000 -0.00000
								CHANNELS 3 Zrotation Yrotation Xrotation
								JOINT RightFingerBase
								{
									OFFSET 0 0 0
									CHANNELS 3 Zrotation Yrotation Xrotation
									JOINT RightHandIndex1
									{
										OFFSET -0.50763 -0.00000 -0.00000
										CHANNELS 3 Zrotation Yrotation Xrotation
										End Site
										{
											OFFSET -0.40926 -0.00000 -0.00000
										}
									}
								}
								JOINT RThumb
								{
									OFFSET 0 0 0
									CHANNELS 3 Zrotation Yrotation Xrotation
									End Site
									{
										OFFSET -0.41551 -0.00000 0.41551
									}
								}
							}
						}
					}
				}
			}
		}
	}
}
MOTION
Frames: 12
Frame Time: 0.0606061
0.00 0.00 0.00 -393.0930 -86.0212 400.9010 0.0000 0.0000 0.0000 -17.6001 -3.8870 2.2024 2.2315 9.3326 26.8413 0.1402 -5.5847 -7.2095 1.2224 -7.0125 -19.7524 0.0000 0.0000 0.0000 17.4657 13.8749 -29.5943 -1.1160 -6.7111 18.8624 0.3643 -10.6323 -4.2929 -0.3393 -3.7432 10.3554 0.8216 -0.4799 -3.4759 2.4160 -0.7240 -1.3468 1.9884 -0.3753 0.5885 1.0634 5.9096 -15.1905 1.4922 7.0383 32.7543 1.4521 3.1071 13.5732 -0.0000 0.0000 0.0000 -91.6261 12.3448 -59.5393 6.6039 -11.2656 -0.6521 -0.0000 -0.0000 44.8597 18.4586 40.4147 12.2107 -7.1250 0.0000 -0.0000 -26.2543 70.2936 -16.2317 -0.0000 0.0000 0.0000 83.5426 -5.1408 5.3092 -16.9907 26.8455 -4.0831 0.0000 0.0000 5.1460 -12.6842 -27.5637 5.9458 7.1250 -0.0000 -0.0000 19.4048 -57.0562 -5.8828
0.00 0.00 0.00 -398.4180 -81.7931 404.8460 0.0000 0.0000 0.0000 -11.6202 -6.7203 -4.7865 5.4016 13.8223 42.5301 -0.0891 -5.3298 2.6821 1.0473 -6.5080 -18.2656 0.0000 0.0000 0.0000 23.9957 12.1348 -23.5504 -1.4571 -7.6295 21.5944 0.2488 -8.9494 -4.9994 -0.9046 -6.0611 16.9619 4.0031 0.0077 -3.1166 3.3871 -0.1908 -1.5089 1.2273 -0.1350 0.1979 1.3820 5.8391 -15.2945 1.7449 6.7698 33.3836 1.4798 3.0584 13.8775 -0.0000 -0.0000 0.0000 -86.0159 4.7513 -23.8586 10.5015 -17.5202 -1.6227 -0.0000 -0.0000 9.1222 18.4416 41.4295 12.4430 -7.1250 0.0000 -0.0000 -28.0171 71.1423 -17.8906 -0.0000 -0.0000 0.0000 81.4303 -2.9112 1.2996 -14.3540 23.2386 -2.9664 0.0000 0.0000 6.8135 -13.6072 -28.4411 6.5761 7.1250 -0.0000 -0.0000 19.0360 -58.0805 -6.2402
0.00 0.00 0.00 -398.7350 -76.9901 402.7520 0.0000 0.0000 0.0000 -5.7614 -10.7671 -19.6460 7.8666 16.0203 52.0808 -0.0374 -4.2579 -1.1399 0.7640 -5.5816 -15.5752 0.0000 0.0000 0.0000 32.0175 5.4162 -11.5789 -1.0740 -6.5877 18.4995 0.0107 -7.6549 -10.6811 -1.0352 -6.4714 18.1585 6.1810 0.9471 -2.8376 3.8669 1.0439 -2.3250 0.5420 0.4262 -0.7644 0.8847 4.9302 -15.0121 3.9867 5.0922 29.7984 2.0609 2.6955 12.2223 -0.0000 -0.0000 0.0000 -70.5137 -20.2345 12.7881 32.1253 -42.6468 -12.8256 -0.0000 0.0000 -32.6845 12.0606 46.1827 8.7642 -7.1250 0.0000 -0.0000 -45.1394 72.4412 -31.1281 -0.0000 -0.0000 0.0000 76.2339 3.2295 4.5886 -14.2026 23.0236 -2.9069 0.0000 0.0000 4.2382 -16.6588 -32.8058 9.2088 7.1250 -0.0000 -0.0000 19.1333 -62.9142 -8.4841
0.00 0.00 0.00 -405.1010 -78.1459 409.1550 0.0000 0.0000 0.0000 -5.6273 -10.4986 -25.9962 4.2178 12.4447 37.3238 0.1220 -1.0713 -6.3057 0.7451 -5.5138 -15.3800 0.0000 0.0000 0.0000 33.9841 1.9768 -4.5307 -0.7552 -5.5504 15.4854 -0.2619 -6.0770 -13.7817 -0.7184 -5.4161 15.0994 5.6909 2.2765 -3.4605 3.3046 2.8462 -3.9817 0.2740 1.2705 -2.0611 -1.8656 3.6847 -12.3696 7.1740 3.7838 19.8791 3.0787 2.2966 7.9953 0.0000 -0.0000 0.0000 -53.4481 -44.6054 8.9653 46.6877 -51.5690 -23.5535 -0.0000 0.0000 -34.1544 3.2470 40.6480 2.1164 -7.1250 0.0000 -0.0000 -42.8134 65.7722 -23.3100 0.0000 -0.0000 0.0000 73.3858 9.3985 13.9047 -17.7420 27.8255 -4.4281 0.0000 -0.0000 -0.1972 -18.2523 -34.0421 10.4601 7.1250 -0.0000 -0.0000 18.4732 -64.4971 -8.8638
0.00 0.00 0.00 -424.4820 -81.2256 429.6650 0.0000 0.0000 0.0000 -5.5449 -10.5584 -28.2672 1.4793 7.6849 21.7610 0.0211 3.3009 -5.6553 0.5183 -4.6143 -12.8118 0.0000 0.0000 0.0000 33.5738 1.1157 0.1248 -0.6946 -5.3279 14.8462 -0.5554 -4.5245 -16.4568 -0.2884 -3.4538 9.5449 5.8562 3.7430 -4.4314 2.8475 4.7326 -5.3847 -0.2201 2.1407 -2.8647 -5.2154 2.8289 -7.8375 9.6910 3.5794 6.4144 3.9577 2.0537 2.9051 0.0000 0.0000 0.0000 -42.1840 -52.5995 0.2338 49.0442 -52.6027 -25.4129 -0.0000 0.0000 -22.5933 4.2477 34.8046 2.4275 -7.1250 0.0000 -0.0000 -34.1629 61.5277 -14.6870 0.0000 0.0000 0.0000 73.3259 16.0406 22.1581 -21.8552 32.8130 -6.5072 0.0000 -0.0000 -3.2401 -17.4848 -32.6609 9.6480 7.1250 -0.0000 -0.0000 18.0870 -62.9926 -8.0371
0.00 0.00 0.00 -445.0000 -85.5115 450.4680 0.0000 0.0000 0.0000 -10.2541 -13.1670 -23.5527 0.9957 6.3504 17.8044 -0.0738 5.1108 -3.6959 0.1183 -2.2172 -6.1062 0.0000 0.0000 0.0000 25.4526 -0.6357 1.0331 -3.8771 -11.9951 35.7146 0.1773 -7.4625 -3.3045 -0.0807 1.8326 -5.0433 4.9556 4.3417 -5.8401 1.6240 5.4327 -5.5043 -0.8568 2.5152 -2.1308 -8.2024 -0.1351 -0.2650 14.5218 1.2646 -21.7559 6.1534 -0.0984 -6.5777 -0.0000 0.0000 0.0000 -73.6947 -15.2605 20.9971 43.0964 -49.8011 -20.7744 -0.0000 -0.0000 3.8611 15.8549 26.0317 7.1048 -7.1250 0.0000 -0.0000 -15.2457 56.2421 -4.2733 -0.0000 0.0000 0.0000 77.6082 30.1631 33.6575 -33.8391 43.9652 -14.0012 0.0000 -0.0000 -12.8191 -7.0090 -28.6179 3.3701 7.1250 -0.0000 -0.0000 25.8259 -56.8481 -7.8583
0.00 0.00 0.00 -388.3950 -85.5237 392.8600 0.0000 0.0000 0.0000 -16.2662 -12.1369 -16.5452 1.0342 6.4683 18.1493 0.0350 0.2451 -3.6305 0.0357 -1.2195 -3.3530 0.0000 0.0000 0.0000 21.3592 -1.4619 -10.0689 -7.5673 -15.7916 50.9886 0.3155 -12.4271 3.4728 -0.0161 -0.8187 2.2502 2.7273 3.7816 -4.7770 0.6783 4.8511 -4.9913 -0.6844 2.3049 -2.3050 -8.5922 -2.1918 0.5844 16.0734 -1.2672 -24.4568 7.0284 -1.5183 -7.2374 0.0000 0.0000 0.0000 -83.1791 -6.9579 17.1845 26.4523 -37.6518 -9.1625 -0.0000 -0.0000 9.7637 17.9895 26.5884 8.2692 -7.1250 0.0000 -0.0000 -13.3364 57.2339 -4.0453 0.0000 0.0000 0.0000 75.8095 36.4031 28.6664 -37.1913 46.3150 -16.3782 0.0000 -0.0000 -17.9534 -4.0032 -30.2814 2.0210 7.1250 -0.0000 -0.0000 30.0850 -57.6757 -9.9301
0.00 0.00 0.00 -360.8190 -77.8672 365.9980 0.0000 0.0000 0.0000 -21.1253 -9.6818 -3.0695 0.7177 5.4136 15.0921 0.2551 -5.2891 -9.1631 0.0162 -0.8223 -2.2601 0.0000 0.0000 0.0000 15.8410 -1.7633 -31.7275 -4.9848 -13.3667 40.7571 0.7208 -15.5236 -10.7010 -0.1327 -2.3484 6.4696 0.7141 2.6194 -2.2810 0.5916 3.4390 -4.4368 0.1897 1.6752 -3.2784 -9.2294 -5.5860 3.3704 18.3532 -5.6224 -26.8077 8.3613 -3.8734 -7.7667 -0.0000 -0.0000 0.0000 -89.6929 -2.5655 -12.7951 9.7895 -16.4097 -1.4149 -0.0000 -0.0000 30.2708 18.0261 25.7722 8.0535 -7.1250 0.0000 -0.0000 -12.8642 56.4333 -3.6485 -0.0000 -0.0000 0.0000 63.0296 55.8928 8.9488 -41.7479 49.0720 -19.7498 0.0000 -0.0000 -30.2430 -4.7437 -37.0956 2.8653 7.1250 -0.0000 -0.0000 36.3476 -63.4987 -17.4501
0.00 0.00 0.00 -358.7670 -76.0934 364.9600 0.0000 0.0000 0.0000 -21.0075 -8.3035 0.9217 0.7559 5.5528 15.4921 0.4417 -6.4994 -11.9959 0.0975 -2.0135 -5.5428 0.0000 0.0000 0.0000 12.9558 0.8980 -33.0235 -1.9539 -8.7694 25.0766 0.7202 -15.7041 -11.4070 -0.0486 -1.4226 3.9124 0.4122 2.1757 -2.3296 0.9153 2.8551 -4.4137 0.6956 1.3995 -3.2588 -9.2021 -6.5753 3.9196 19.0808 -6.9596 -25.0383 8.5079 -4.5513 -7.0300 0.0000 0.0000 0.0000 -89.2794 -0.0941 -21.5947 8.7257 -14.7222 -1.1294 -0.0000 -0.0000 35.4576 17.8879 25.5101 7.9135 -7.1250 0.0000 -0.0000 -12.8733 56.1446 -3.5606 0.0000 0.0000 0.0000 57.9985 61.7495 1.8506 -42.8334 49.6618 -20.5736 0.0000 -0.0000 -35.4793 -7.4559 -39.8720 4.7957 7.1250 -0.0000 -0.0000 37.4330 -66.4282 -20.5412
0.00 0.00 0.00 -365.7120 -77.5040 371.4340 0.0000 0.0000 0.0000 -16.5923 -6.9945 1.9878 2.6928 10.1804 29.5629 0.0950 -7.6814 -7.2437 0.9551 -6.2234 -17.4339 0.0000 0.0000 0.0000 14.7567 9.3776 -28.0080 -1.0208 -6.4276 18.0304 0.6601 -14.2164 -5.4880 -0.3144 -3.6048 9.9674 1.5031 1.8113 -2.9740 2.1941 2.3547 -4.1898 1.4291 1.1329 -2.6722 -10.2773 -8.9883 0.4047 19.6742 -11.2820 -10.4949 7.6904 -6.0546 -1.2898 -0.0000 0.0000 0.0000 -88.6753 5.2762 -24.3974 9.7152 -16.2929 -1.3940 -0.0000 -0.0000 30.9326 17.5874 24.9751 7.6229 -7.1250 0.0000 -0.0000 -12.9153 55.5526 -3.3859 -0.0000 0.0000 0.0000 68.2319 60.5855 7.0648 -46.4097 51.4407 -23.3360 0.0000 -0.0000 -45.7880 -8.8546 -41.8277 5.9312 7.1250 -0.0000 -0.0000 39.1948 -68.3313 -23.2704
0.00 0.00 0.00 -383.1400 -79.0290 387.5480 0.0000 0.0000 0.0000 -11.4393 -7.3145 -5.5100 6.1916 14.6115 45.7460 -0.1061 -5.8029 1.4278 0.7845 -5.6544 -15.7849 0.0000 0.0000 0.0000 22.5630 10.5511 -21.8905 -1.3685 -7.4036 20.9168 0.2519 -8.9018 -4.2206 -0.9376 -6.1676 17.2715 3.7348 1.7837 -3.3317 3.5607 2.2395 -3.7349 1.6092 1.0292 -1.9761 -11.6875 -10.4222 -4.6532 18.0811 -14.6743 4.0593 6.4909 -7.0039 4.2298 0.0000 -0.0000 0.0000 -89.4050 6.5756 -22.1251 10.9678 -18.2388 -1.7658 -0.0000 -0.0000 25.6056 17.3812 24.1094 7.2864 -7.1250 0.0000 -0.0000 -12.7102 54.6515 -3.0505 0.0000 -0.0000 0.0000 77.3322 49.6206 11.2154 -50.5581 53.2181 -26.6205 0.0000 -0.0000 -47.8589 -7.9267 -41.4231 5.2633 7.1250 -0.0000 -0.0000 39.4395 -67.7424 -22.9277
0.00 0.00 0.00 -455.5880 -81.5457 461.1440 0.0000 0.0000 0.0000 -4.1554 -11.3089 -29.6950 2.7442 10.2689 29.8520 0.0375 1.7326 -4.7231 0.3728 -3.9219 -10.8572 0.0000 0.0000 0.0000 34.2765 8.0122 -1.5143 -0.9293 -6.1410 17.1942 -0.5112 0.4591 -13.3569 -0.6941 -5.3259 14.8405 6.3531 1.4601 -2.5519 5.3361 1.5993 -1.1357 1.9871 0.7176 0.2883 -12.7376 -10.6127 -11.4484 9.7870 -17.0837 30.8776 3.0883 -8.1466 14.5500 0.0000 -0.0000 0.0000 -89.0781 7.3781 -16.9708 13.7922 -22.4369 -2.7483 -0.0000 -0.0000 18.7067 17.5767 22.1465 6.8098 -7.1250 0.0000 -0.0000 -11.6576 52.7252 -2.2406 0.0000 -0.0000 0.0000 81.2460 11.3767 -9.6559 -12.3949 20.3942 -2.2380 0.0000 0.0000 9.2249 -19.4959 -27.7890 9.3727 7.1250 -0.0000 -0.0000 12.4084 -58.7554 -4.2137
